<?xml version="1.0" standalone="no"?>
<!DOCTYPE svg PUBLIC "-//W3C//DTD SVG 20010904//EN"
 "http://www.w3.org/TR/2001/REC-SVG-20010904/DTD/svg10.dtd">
<svg version="1.0" xmlns="http://www.w3.org/2000/svg"
 width="300.000000pt" height="150.000000pt" viewBox="0 0 300.000000 150.000000"
 preserveAspectRatio="xMidYMid meet">
<metadata>
Created by potrace 1.10, written by Peter Selinger 2001-2011
</metadata>
<g transform="translate(0.000000,150.000000) scale(0.100000,-0.100000)"
fill="#000000" stroke="none">
<path d="M1715 1325 c-76 -21 -161 -72 -224 -134 -160 -158 -197 -408 -89
-600 l30 -54 -29 -26 c-30 -28 -285 -253 -292 -258 -3 -2 6 -14 19 -28 l23
-24 96 87 c53 48 98 89 101 92 3 3 31 29 63 58 l58 54 45 -42 c101 -93 272
-145 407 -122 341 58 532 422 381 728 -60 122 -162 210 -301 261 -75 27 -205
31 -288 8z m264 -64 c118 -37 209 -112 272 -225 l33 -59 -30 8 c-98 29 -176
-23 -190 -127 -17 -120 70 -216 168 -187 17 5 33 7 36 5 10 -11 -57 -116 -104
-163 -131 -131 -336 -165 -510 -84 -77 36 -136 89 -186 165 -47 74 -49 88 -7
76 40 -12 96 7 120 40 26 36 30 273 5 278 -14 3 -16 -12 -16 -127 0 -128 0
-130 -26 -150 -33 -26 -84 -27 -114 -3 -18 15 -23 31 -27 88 -19 265 179 481
444 483 43 1 95 -6 132 -18z m288 -315 c27 -23 28 -28 28 -116 0 -88 -1 -93
-28 -116 -54 -46 -133 -23 -161 46 -20 51 -20 89 0 140 28 69 107 92 161 46z"/>
<path d="M1937 1093 c-14 -13 -6 -33 13 -33 13 0 20 7 20 20 0 19 -20 27 -33
13z"/>
<path d="M1804 981 c-23 -11 -47 -27 -53 -38 -9 -15 -10 -13 -11 15 0 22 -5
32 -15 32 -13 0 -15 -24 -15 -160 0 -136 2 -160 15 -160 12 0 15 19 15 111 0
61 5 119 10 130 13 22 80 59 110 59 13 0 20 5 18 13 -7 19 -29 18 -74 -2z"/>
<path d="M1940 830 c0 -136 2 -160 15 -160 13 0 15 24 15 160 0 136 -2 160
-15 160 -13 0 -15 -24 -15 -160z"/>
<path d="M240 874 c0 -149 1 -155 19 -149 11 3 22 1 26 -5 8 -13 51 -13 76 0
49 27 65 127 28 174 -16 21 -29 26 -63 26 -23 0 -47 -5 -54 -12 -9 -9 -12 3
-12 55 0 38 -4 67 -10 67 -6 0 -10 -59 -10 -156z m128 11 c19 -18 25 -86 10
-115 -19 -36 -60 -48 -93 -26 -24 16 -26 22 -23 79 3 54 6 63 28 74 27 13 57
9 78 -12z"/>
<path d="M560 874 c0 -149 1 -155 19 -149 11 3 22 1 26 -5 8 -13 51 -13 76 0
49 27 64 136 24 180 -21 23 -93 28 -113 8 -9 -9 -12 3 -12 55 0 38 -4 67 -10
67 -6 0 -10 -59 -10 -156z m119 19 c12 -10 24 -34 27 -53 12 -75 -36 -125 -96
-100 -31 13 -31 13 -28 79 3 58 6 67 28 78 33 17 44 16 69 -4z"/>
<path d="M788 875 c-2 -119 0 -155 10 -155 9 0 12 38 12 155 0 205 -18 205
-22 0z"/>
<path d="M468 820 c-2 -75 0 -100 10 -100 9 0 12 27 12 100 0 55 -4 100 -9
100 -5 0 -11 -45 -13 -100z"/>
<path d="M891 894 c-15 -19 -21 -41 -21 -76 0 -41 5 -54 29 -79 29 -29 68 -37
105 -23 30 11 16 25 -18 19 -53 -10 -96 18 -96 63 0 21 4 22 70 22 67 0 70 1
70 24 0 13 -9 35 -21 50 -29 37 -89 37 -118 0z m88 6 c7 0 31 -43 31 -55 0 -3
-27 -5 -60 -5 -45 0 -60 3 -60 14 0 20 50 58 68 51 7 -3 17 -5 21 -5z"/>
<path d="M1193 898 c-46 -51 -36 -145 17 -173 31 -16 58 -19 84 -9 31 12 15
24 -23 18 -61 -10 -88 25 -81 106 4 48 50 77 95 60 20 -7 25 -6 25 5 0 11 -12
15 -48 15 -38 0 -53 -5 -69 -22z"/>
<path d="M2378 914 c-9 -9 -10 -129 -2 -162 8 -29 58 -55 87 -46 49 15 57 31
57 126 0 57 -4 87 -10 83 -5 -3 -10 -42 -10 -85 0 -73 -2 -81 -24 -95 -18 -12
-30 -13 -49 -6 -30 12 -36 30 -39 124 -2 38 -6 65 -10 61z"/>
<path d="M2596 901 c-10 -11 -16 -31 -14 -47 2 -24 11 -31 48 -45 36 -13 46
-22 48 -43 4 -32 -34 -51 -73 -36 -15 6 -26 6 -30 0 -4 -6 6 -15 20 -20 34
-13 41 -13 74 5 58 30 43 96 -26 112 -31 7 -39 14 -41 35 -4 31 22 43 68 33
31 -7 42 8 14 19 -31 12 -71 6 -88 -13z"/>
</g>
</svg>
